<svg width="461" height="331" viewBox="0 0 461 331" fill="none" xmlns="http://www.w3.org/2000/svg">
<g filter="url(#filter0_d_39_6)">
<path fill-rule="evenodd" clip-rule="evenodd" d="M423.501 200.451C444.531 183.552 459.624 159.832 450.585 133.402C448.716 127.937 446.236 122.864 442.529 117.443C437.873 110.635 429.846 102.972 429.11 101.672L412.866 89.0377C413.289 90.3008 415.023 91.6061 416.009 92.5613C443.126 116.847 450.47 148.573 421.621 177.006C411.848 186.639 399.939 194.253 387.707 200.313C386.087 201.115 383.409 202.21 381.964 203.248C381.374 202.363 384.566 187.038 384.942 184.307C388.203 160.62 384.556 132.943 375.087 110.781C364.024 84.8857 348.005 64.3652 324.547 48.0534C307.254 36.0291 290.068 28.8349 269.468 24.6802C250.374 20.8294 233.149 21.4118 214.655 24.6256C189.188 29.0513 164.839 41.709 145.7 58.9276C131.299 71.8842 119.468 87.8645 111.559 104.896C99.6378 130.57 95.6614 157.562 99.3054 184.768C99.7837 188.341 100.133 192.445 101.253 195.973L105.668 197.894L116.275 202.3C136.823 208.263 154.708 215.533 176.611 220.632C183.502 222.236 189.992 223.541 196.672 224.748C199.781 225.31 215.89 227.471 216.419 228.025L209.667 227.624L182.475 224.505C173.476 223.228 164.513 221.716 155.232 219.661C136.354 215.48 119.533 210.221 100.094 202.558C82.3254 194.453 64.6314 185.663 49.4074 170.623C15.9586 137.579 26.7509 102.442 61.8652 78.0409C71.6781 71.2217 85.5629 63.9954 96.5314 59.7958C100.318 58.3461 105.179 56.8688 108.46 55.2094L102.984 56.5577C90.4938 60.205 77.631 65.0962 65.6821 70.822C55.3525 75.771 43.5806 82.7677 34.4302 90.3286C25.0744 98.0583 16.4085 107.648 11.4895 118.863C3.88981 136.19 6.32195 153.105 15.8946 169.039C26.4514 186.611 43.579 198.838 60.7601 209.265C65.4052 211.964 70.2691 214.53 74.9806 216.778C88.3151 223.141 100.582 227.232 114.102 232.333C123.13 249.748 137.15 267.026 154.905 280.707C178.972 299.253 212.052 310.916 242.671 310.091C264.481 309.503 281.443 306.407 301.411 297.446C308.26 294.372 321.806 287.293 327.88 281.725C342.004 272.07 359.636 252.306 367.914 236.29L371.237 229.796C372.997 227.018 378.874 225.592 381.678 224.393C396.686 217.972 410.624 210.797 423.501 200.451ZM156.011 140.74C155.958 139.755 157.044 140.788 155.496 139.539L151.639 142.121C150.518 142.739 150.978 142.502 150.021 142.669L147.279 143.78C146.152 144.43 145.37 144.713 144.231 146.062L141.777 144.064C139.724 146.59 139.691 145.418 137.845 146.713C136.056 144.923 136.678 146.489 137.034 144.889C136.198 145.883 136.344 146.037 135.27 146.448C134.803 146.626 134.848 146.514 134.282 146.586C134.189 146.598 134.055 146.59 133.963 146.6L132.398 146.908C131.839 147.027 132.184 146.998 131.437 147.09C129.277 147.357 129.216 146.789 127.569 147.035C126.803 147.15 127.75 146.887 126.639 147.256C126.55 147.286 126.423 147.326 126.335 147.362L125.734 147.649C123.755 148.724 124.266 149.882 121.53 148.003L121.149 148.465C123.606 150.497 121.884 148.964 122.063 150.177L117.709 151.273C117.295 151.577 116.576 152.553 116.22 152.986C115.172 152.121 114.56 151.77 113.747 151.509C114.393 137.326 121.718 115.781 129.056 103.003C131.24 99.8805 133.224 95.9512 135.579 92.5594C142.651 82.3748 151.766 72.4554 161.238 64.9243C167.118 60.2489 173.021 56.3423 179.65 52.5299C182.804 50.7151 193.59 45.3655 197.278 44.4754L198.414 44.261C201.565 43.442 204.484 42.3552 207.592 41.451C215.893 39.0357 227.569 37.2317 235.838 37.0139C239.24 36.9243 241.906 36.8239 245.488 36.8943C248.69 36.9571 251.891 37.3385 255.217 37.5344C260.129 37.8236 269.547 39.6062 274.396 41.0706C277.387 42.4533 280.416 43.2173 283.366 44.4148C286.189 45.5602 289.052 46.9079 291.869 48.505C299.029 52.5646 302.334 55.3393 308.666 61.2033C313 65.118 317.951 73.3988 319.214 78.0144C319.911 79.3289 319.741 79.0861 320.102 80.3446C320.549 81.9023 320.27 81.3977 321.147 82.9065C320.732 84.2097 321.492 85.6689 321.695 87.6357C321.887 89.5057 321.872 90.6046 321.832 92.4654C321.783 94.7551 321.491 100.258 320.167 102.211L319.45 103.128C319.413 103.211 319.365 103.507 319.354 103.658C318.681 104.081 316.019 103.336 314.829 103.487C313.411 103.667 313.554 104.034 312.605 104.241C311.546 104.472 311.415 103.974 310.019 104.222C308.814 104.436 309.764 104.838 307.906 104.667C306.394 104.527 307.318 104.025 304.287 104.594C304.191 104.612 304.061 104.63 303.965 104.65C301.936 105.076 301.404 105.566 299.798 107.527L299.925 109.424C298.619 108.35 298.548 107.868 297.409 106.767C297.304 106.802 297.051 106.799 297.094 106.876L295.463 106.875C293.408 106.765 291.882 108.249 290.137 108.386C289.049 108.471 289.859 108.607 289.353 108.22L286.819 107.198C284.549 107.511 285.158 108.009 283.99 108.192L270.475 108.683C266.874 109.522 267.334 108.749 265.649 109.518C264.254 110.155 263.67 110.887 262.061 110.978C258.899 111.157 262.537 112.717 259.391 110.858C259.142 112.336 259.126 111.371 259.111 112.578L244.418 88.348C241.731 85.3396 237.146 75.7305 235.264 74.4454C232.832 70.7626 226.121 58.1882 224.244 56.7132L207.024 78.0641C204.11 82.0038 203.686 86.9332 205.04 90.6289C206.606 94.9085 210.896 99.6818 211.656 101.268C212.356 102.728 211.982 101.682 212.059 102.69C213.842 104.134 219.807 113.41 221.649 116.091C223.227 118.389 224.63 120.414 226.26 122.746L229.833 127.907C229.863 127.962 230.261 128.878 230.261 128.878L230.438 129.553C232.194 130.932 243.724 148.382 246.937 152.952C247.306 153.478 247.856 154.169 248.206 154.782C249.12 156.383 248.658 155.223 248.839 156.393C247.066 155.47 246.251 156.174 244.199 156.35C238.734 156.821 237.876 157.253 230.763 157.491C220.188 157.844 222.339 157.306 212.316 156.812C205.492 156.475 195.739 153.835 188.899 151.647L179.495 147.731C177.973 147.446 179.145 147.613 178.832 147.999C178.054 148.959 178.318 149.743 179.367 150.63L156.011 140.74ZM207.024 78.0641L224.244 56.7132C226.121 58.1882 232.832 70.7626 235.264 74.4454L237.774 73.4545C239.08 73.2029 238.999 73.5936 239.938 73.1848C240.478 72.9497 240.765 72.5277 241.437 72.1681L243.438 71.7808C243.539 71.7862 243.671 71.8156 243.771 71.8253C247.121 72.1416 246.295 71.3904 248.721 70.5086C251.133 69.6313 250.301 71.1618 252.961 70.6817C254.891 70.333 253.955 69.6221 256.458 69.7984C257.539 69.8744 257.575 70.5512 259.514 68.3562C260.003 69.1797 260.057 69.6091 261.216 69.5635L262.749 68.9678C264.828 67.9097 261.944 69.6414 266.256 68.5434C267.178 68.3086 266.71 68.4144 267.601 68.4089L272.747 68.2873C274.652 68.3689 274.981 66.8658 277.718 66.593L281.511 66.0184C281.605 65.9934 281.734 65.9587 281.828 65.9355L285.299 65.1228C288.88 64.5537 285.885 66.912 290.379 64.7505C292.477 63.7418 291.977 64.6744 295.507 64.0442C295.637 64.0212 296.016 63.9568 296.146 63.9364C296.24 63.922 296.374 63.911 296.467 63.8968C296.56 63.8829 296.694 63.8752 296.786 63.8598L300.547 62.5811C301.893 62.0375 301.582 62.1021 302.296 60.7657C303.528 62.9588 306.356 60.6437 309.521 63.2401C307.092 60.7151 308.839 62.6521 308.666 61.2033C302.334 55.3393 299.029 52.5646 291.869 48.505C289.052 46.9079 286.189 45.5602 283.366 44.4148C280.416 43.2173 277.387 42.4533 274.396 41.0706C269.547 39.6062 260.129 37.8236 255.217 37.5344C251.891 37.3385 248.69 36.9571 245.488 36.8943C241.906 36.8239 239.24 36.9243 235.838 37.0139C227.569 37.2317 215.893 39.0357 207.592 41.451C204.484 42.3552 201.565 43.442 198.414 44.261L187.316 49.466C183.82 51.2742 180.743 52.9921 176.966 55.4717C165.767 62.8241 164.629 66.2261 156.711 74.6522C158.129 74.611 156.465 76.0904 158.261 74.221C157.232 75.6653 157.426 75.6774 157.464 76.4656C157.692 76.399 159.157 75.9542 159.353 75.9286L174.028 74.3985C174.99 74.3145 175.433 74.4196 175.952 74.3806C178.519 74.1877 176.012 74.432 177.866 73.7906C181.137 72.6589 176.78 74.741 183.285 73.3638C184.966 73.0078 185.029 73.5754 186.716 72.2826L186.253 74.1609C190.477 72.4185 188.508 74.014 190.936 73.4308C195.452 72.3454 192.792 73.42 195.143 73.052C197.483 72.6858 194.319 72.5062 197.055 72.5728C201.881 72.6905 200.535 72.0302 204.147 72.4248C204.118 72.3009 204.056 72.1484 204.013 72.0684L203.423 71.0889C203.263 70.8885 202.72 70.479 202.49 70.2886C203.64 69.1942 205.868 69.3593 206.584 69.7005C206.978 69.8877 206.35 70.2018 207.788 69.985L209.307 69.4125C209.796 68.9645 209.684 68.5521 209.532 68.2185C211.008 69.3585 211.383 69.5272 212.026 70.7854L214.218 67.9476C212.572 70.0633 207.422 75.6689 207.024 78.0641ZM156.011 140.74L179.367 150.63C178.318 149.743 178.054 148.959 178.832 147.999C179.145 147.613 177.973 147.446 179.495 147.731L188.899 151.647C195.739 153.835 205.492 156.475 212.316 156.812C222.339 157.306 220.188 157.844 230.763 157.491C237.876 157.253 238.734 156.821 244.199 156.35C246.251 156.174 247.066 155.47 248.839 156.393C248.658 155.223 249.12 156.383 248.206 154.782C247.856 154.169 247.306 153.478 246.937 152.952C243.724 148.382 232.194 130.932 230.438 129.553L228.927 128.037C227.167 128.185 227.922 129.143 225.015 128.325C222.695 127.672 225.355 128.545 223.456 128.697C222.259 128.793 221.69 128.175 219.319 129.002C218.27 129.367 218.118 129.722 217.157 130.192C215.605 130.343 217.258 128.781 213.294 130.036C213.198 130.066 213.071 130.11 212.974 130.136C210.658 130.754 206.407 130.666 205.004 131.069C203.833 131.405 204.098 131.672 202.488 131.835C200.715 132.015 201.326 131.721 199.208 131.427C197.836 131.237 198.519 131.76 197.238 130.896C197.653 132.26 198.356 131.17 197.01 132.068C195.397 133.145 196.792 130.451 192.54 132.308C192.529 132.174 192.447 131.884 192.544 131.906C192.654 131.932 192.567 131.566 192.501 131.181C192.35 130.296 192.813 131.343 192.245 130.351C190.701 130.966 192.008 130.909 190.156 131.064C189.712 131.101 188.392 130.989 187.788 131.003C188.228 132.031 189.02 131.202 189.347 132.622L186.959 134.039C186.575 133.96 186.137 133.115 184.624 133.44C182.038 133.995 183.784 134.929 179.871 134.704C179.212 134.667 179.746 134.672 178.908 134.698C172.989 134.874 176.24 133.774 173.162 134.986C170.81 135.913 171.128 134.642 168.944 134.979C165.494 135.512 166.848 137.505 164.073 135.32L163.505 136.011C157.545 130.972 152.146 124.056 149.62 117.011C148.79 114.694 147.471 112.229 148.07 109.768L147.335 105.193C145.869 103.883 146.43 104.388 144.959 102.858L143.611 103.349C143.056 103.572 142.973 103.662 142.527 103.826C142.799 102.733 143.318 102.478 141.682 102.509C140.265 102.536 141.223 102.84 139.751 103.526C137.316 104.661 138.6 102.208 135.24 103.367L134.313 103.748C134.219 103.783 134.095 103.83 134.002 103.863L131.184 104.834C129.614 105.587 130.361 105.57 128.683 105.423L129.056 103.003C121.718 115.781 114.393 137.326 113.747 151.509C114.56 151.77 115.172 152.121 116.22 152.986C116.576 152.553 117.295 151.577 117.709 151.273L122.063 150.177C121.884 148.964 123.606 150.497 121.149 148.465L121.53 148.003C124.266 149.882 123.755 148.724 125.734 147.649L126.335 147.362C126.423 147.326 126.55 147.286 126.639 147.256C127.75 146.887 126.803 147.15 127.569 147.035C129.216 146.789 129.277 147.357 131.437 147.09C132.184 146.998 131.839 147.027 132.398 146.908L133.963 146.6C134.055 146.59 134.189 146.598 134.282 146.586C134.848 146.514 134.803 146.626 135.27 146.448C136.344 146.037 136.198 145.883 137.034 144.889C136.678 146.489 136.056 144.923 137.845 146.713C139.691 145.418 139.724 146.59 141.777 144.064L144.231 146.062C145.37 144.713 146.152 144.43 147.279 143.78L150.021 142.669C150.978 142.502 150.518 142.739 151.639 142.121L155.496 139.539C157.044 140.788 155.958 139.755 156.011 140.74ZM147.335 105.193L148.07 109.768L149.52 110.749C151.079 109.826 151.17 109.596 152.958 109.831C156.325 110.274 155.215 111.082 157.061 108.864C158.141 110.231 157.673 110.378 159.369 109.695C162.668 108.366 159.633 109.233 162.583 109.303C164.812 109.355 163.363 108.738 165.384 108.049C167.141 107.449 166 108.086 168.036 109.018C173.545 105.006 171.085 108.835 175.916 107.216L186.444 106.052C190.198 105.992 187.753 104.799 190.04 106.554C192.08 104.022 189.904 104.955 192.181 105.068C192.26 105.072 192.405 105.092 192.485 105.1L193.368 105.2C197.318 105.938 194.191 104.88 197.261 104.834C197.588 104.829 198.249 104.905 198.253 104.905C199.392 104.734 197.637 106.497 199.788 104.01C200.52 105.022 200.306 104.211 199.98 105.298C201.418 104.716 200.652 104.615 202.421 104.591C204.784 104.559 204.19 104.633 206.471 103.178C206.572 103.113 206.674 103.035 206.776 102.975L208.021 102.438C208.762 102.185 208.9 102.193 209.278 102.054L210.762 101.414L212.059 102.69C211.982 101.682 212.356 102.728 211.656 101.268C210.896 99.6818 206.606 94.9085 205.04 90.6289C203.686 86.9332 204.11 82.0038 207.024 78.0641C207.422 75.6689 212.572 70.0633 214.218 67.9476L212.026 70.7854C211.383 69.5272 211.008 69.3585 209.532 68.2185C209.684 68.5521 209.796 68.9645 209.307 69.4125L207.788 69.985C206.35 70.2018 206.978 69.8877 206.584 69.7005C205.868 69.3593 203.64 69.1942 202.49 70.2886C202.72 70.479 203.263 70.8885 203.423 71.0889L204.013 72.0684C204.056 72.1484 204.118 72.3009 204.147 72.4248C200.535 72.0302 201.881 72.6905 197.055 72.5728C194.319 72.5062 197.483 72.6858 195.143 73.052C192.792 73.42 195.452 72.3454 190.936 73.4308C188.508 74.014 190.477 72.4185 186.253 74.1609L186.716 72.2826C185.029 73.5754 184.966 73.0078 183.285 73.3638C176.78 74.741 181.137 72.6589 177.866 73.7906C176.012 74.432 178.519 74.1877 175.952 74.3806C175.433 74.4196 174.99 74.3145 174.028 74.3985L159.353 75.9286C159.157 75.9542 157.692 76.399 157.464 76.4656C157.426 75.6774 157.232 75.6653 158.261 74.221C156.465 76.0904 158.129 74.611 156.711 74.6522C153.158 78.9449 150.577 85.7468 149.279 90.3329C148.6 92.7349 148.076 95.4052 147.827 97.852C147.464 101.405 147.912 103.322 147.335 105.193ZM230.438 129.553L230.261 128.878C230.261 128.878 229.863 127.962 229.833 127.907L226.26 122.746C224.63 120.414 223.227 118.389 221.649 116.091C219.807 113.41 213.842 104.134 212.059 102.69L210.762 101.414L209.278 102.054C208.9 102.193 208.762 102.185 208.021 102.438L206.776 102.975C206.674 103.035 206.572 103.113 206.471 103.178C204.19 104.633 204.784 104.559 202.421 104.591C200.652 104.615 201.418 104.716 199.98 105.298C200.306 104.211 200.52 105.022 199.788 104.01C197.637 106.497 199.392 104.734 198.253 104.905C198.249 104.905 197.588 104.829 197.261 104.834C194.191 104.88 197.318 105.938 193.368 105.2L192.485 105.1C192.405 105.092 192.26 105.072 192.181 105.068C189.904 104.955 192.08 104.022 190.04 106.554C187.753 104.799 190.198 105.992 186.444 106.052L175.916 107.216C171.085 108.835 173.545 105.006 168.036 109.018C166 108.086 167.141 107.449 165.384 108.049C163.363 108.738 164.812 109.355 162.583 109.303C159.633 109.233 162.668 108.366 159.369 109.695C157.673 110.378 158.141 110.231 157.061 108.864C155.215 111.082 156.325 110.274 152.958 109.831C151.17 109.596 151.079 109.826 149.52 110.749L148.07 109.768C147.471 112.229 148.79 114.694 149.62 117.011C152.146 124.056 157.545 130.972 163.505 136.011L164.073 135.32C166.848 137.505 165.494 135.512 168.944 134.979C171.128 134.642 170.81 135.913 173.162 134.986C176.24 133.774 172.989 134.874 178.908 134.698C179.746 134.672 179.212 134.667 179.871 134.704C183.784 134.929 182.038 133.995 184.624 133.44C186.137 133.115 186.575 133.96 186.959 134.039L189.347 132.622C189.02 131.202 188.228 132.031 187.788 131.003C188.392 130.989 189.712 131.101 190.156 131.064C192.008 130.909 190.701 130.966 192.245 130.351C192.813 131.343 192.35 130.296 192.501 131.181C192.567 131.566 192.654 131.932 192.544 131.906C192.447 131.884 192.529 132.174 192.54 132.308C196.792 130.451 195.397 133.145 197.01 132.068C198.356 131.17 197.653 132.26 197.238 130.896C198.519 131.76 197.836 131.237 199.208 131.427C201.326 131.721 200.715 132.015 202.488 131.835C204.098 131.672 203.833 131.405 205.004 131.069C206.407 130.666 210.658 130.754 212.974 130.136C213.071 130.11 213.198 130.066 213.294 130.036C217.258 128.781 215.605 130.343 217.157 130.192C218.118 129.722 218.27 129.367 219.319 129.002C221.69 128.175 222.259 128.793 223.456 128.697C225.355 128.545 222.695 127.672 225.015 128.325C227.922 129.143 227.167 128.185 228.927 128.037L230.438 129.553ZM244.418 88.348L259.111 112.578C259.126 111.371 259.142 112.336 259.391 110.858C262.537 112.717 258.899 111.157 262.061 110.978C263.67 110.887 264.254 110.155 265.649 109.518C267.334 108.749 266.874 109.522 270.475 108.683L283.99 108.192C285.158 108.009 284.549 107.511 286.819 107.198L289.353 108.22C289.859 108.607 289.049 108.471 290.137 108.386C291.882 108.249 293.408 106.765 295.463 106.875L297.094 106.876C297.051 106.799 297.304 106.802 297.409 106.767C298.548 107.868 298.619 108.35 299.925 109.424L299.798 107.527C301.404 105.566 301.936 105.076 303.965 104.65C304.061 104.63 304.191 104.612 304.287 104.594C307.318 104.025 306.394 104.527 307.906 104.667C309.764 104.838 308.814 104.436 310.019 104.222C311.415 103.974 311.546 104.472 312.605 104.241C313.554 104.034 313.411 103.667 314.829 103.487C316.019 103.336 318.681 104.081 319.354 103.658C319.365 103.507 319.413 103.211 319.45 103.128L320.167 102.211C321.491 100.258 321.783 94.7551 321.832 92.4654C321.872 90.6046 321.887 89.5057 321.695 87.6357C321.492 85.6689 320.732 84.2097 321.147 82.9065C320.27 81.3977 320.549 81.9023 320.102 80.3446C319.741 79.0861 319.911 79.3289 319.214 78.0144C318.604 80.4133 316.04 79.299 314.268 77.8353C311.685 80.9806 312.084 79.2673 309.888 79.2784C307.776 79.2877 309.127 80.8613 306.692 79.7856C306.488 79.6956 305.886 79.1684 305.677 78.996C303.899 81.1333 303.347 81.2058 301.206 79.4325C299.416 81.5618 298.892 81.643 296.735 79.8688C294.96 82.0014 294.412 82.0715 292.265 80.305C291.488 81.2378 291.765 81.0856 290.804 81.6182C289.887 82.1262 289.005 81.7269 286.692 82.6636C286.596 82.7028 286.48 82.7733 286.382 82.8093L284.449 83.1507C283.011 83.2966 284.386 83.4901 283.056 83.2333C281.751 82.9814 283.476 83.0555 281.829 82.7403L275.511 83.644C270.125 85.1568 275.471 84.3849 270.76 84.5828C268.062 84.6964 267.915 86.0756 264.757 85.8948C263.074 85.7985 262.272 87.0417 258.357 86.3685C256.783 86.0978 257.282 86.1288 255.528 87.0297C252.893 88.3837 254.679 87.4178 252.323 87.2209C251.778 87.1754 251.984 87.1739 251.353 87.259C251.222 87.2766 250.85 87.3668 250.721 87.3972C244.618 88.8386 246.039 87.4733 243.718 86.3694C245.693 88.6312 244.435 87.0265 244.418 88.348ZM244.418 88.348C244.435 87.0265 245.693 88.6312 243.718 86.3694C246.039 87.4733 244.618 88.8386 250.721 87.3972C250.85 87.3668 251.222 87.2766 251.353 87.259C251.984 87.1739 251.778 87.1754 252.323 87.2209C254.679 87.4178 252.893 88.3837 255.528 87.0297C257.282 86.1288 256.783 86.0978 258.357 86.3685C262.272 87.0417 263.074 85.7985 264.757 85.8948C267.915 86.0756 268.062 84.6964 270.76 84.5828C275.471 84.3849 270.125 85.1568 275.511 83.644L281.829 82.7403C283.476 83.0555 281.751 82.9814 283.056 83.2333C284.386 83.4901 283.011 83.2966 284.449 83.1507L286.382 82.8093C286.48 82.7733 286.596 82.7028 286.692 82.6636C289.005 81.7269 289.887 82.1262 290.804 81.6182C291.765 81.0856 291.488 81.2378 292.265 80.305C294.412 82.0715 294.96 82.0014 296.735 79.8688C298.892 81.643 299.416 81.5618 301.206 79.4325C303.347 81.2058 303.899 81.1333 305.677 78.996C305.886 79.1684 306.488 79.6956 306.692 79.7856C309.127 80.8613 307.776 79.2877 309.888 79.2784C312.084 79.2673 311.685 80.9806 314.268 77.8353C316.04 79.299 318.604 80.4133 319.214 78.0144C317.951 73.3988 313 65.118 308.666 61.2033C308.839 62.6521 307.092 60.7151 309.521 63.2401C306.356 60.6437 303.528 62.9588 302.296 60.7657C301.582 62.1021 301.893 62.0375 300.547 62.5811L296.786 63.8598C296.694 63.8752 296.56 63.8829 296.467 63.8968C296.374 63.911 296.24 63.922 296.146 63.9364C296.016 63.9568 295.637 64.0212 295.507 64.0442C291.977 64.6744 292.477 63.7418 290.379 64.7505C285.885 66.912 288.88 64.5537 285.299 65.1228L281.828 65.9355C281.734 65.9587 281.605 65.9934 281.511 66.0184L277.718 66.593C274.981 66.8658 274.652 68.3689 272.747 68.2873L267.601 68.4089C266.71 68.4144 267.178 68.3086 266.256 68.5434C261.944 69.6414 264.828 67.9097 262.749 68.9678L261.216 69.5635C260.057 69.6091 260.003 69.1797 259.514 68.3562C257.575 70.5512 257.539 69.8744 256.458 69.7984C253.955 69.6221 254.891 70.333 252.961 70.6817C250.301 71.1618 251.133 69.6313 248.721 70.5086C246.295 71.3904 247.121 72.1416 243.771 71.8253C243.671 71.8156 243.539 71.7862 243.438 71.7808L241.437 72.1681C240.765 72.5277 240.478 72.9497 239.938 73.1848C238.999 73.5936 239.08 73.2029 237.774 73.4545L235.264 74.4454C237.146 75.7305 241.731 85.3396 244.418 88.348ZM129.056 103.003L128.683 105.423C130.361 105.57 129.614 105.587 131.184 104.834L134.002 103.863C134.095 103.83 134.219 103.783 134.313 103.748L135.24 103.367C138.6 102.208 137.316 104.661 139.751 103.526C141.223 102.84 140.265 102.536 141.682 102.509C143.318 102.478 142.799 102.733 142.527 103.826C142.973 103.662 143.056 103.572 143.611 103.349L144.959 102.858C146.43 104.388 145.869 103.883 147.335 105.193C147.912 103.322 147.464 101.405 147.827 97.852C148.076 95.4052 148.6 92.7349 149.279 90.3329C150.577 85.7468 153.158 78.9449 156.711 74.6522C164.629 66.2261 165.767 62.8241 176.966 55.4717C180.743 52.9921 183.82 51.2742 187.316 49.466L198.414 44.261L197.278 44.4754C193.59 45.3655 182.804 50.7151 179.65 52.5299C173.021 56.3423 167.118 60.2489 161.238 64.9243C151.766 72.4554 142.651 82.3748 135.579 92.5594C133.224 95.9512 131.24 99.8805 129.056 103.003Z" fill="#1B1918"/>
<path fill-rule="evenodd" clip-rule="evenodd" d="M235.788 234.219L258.357 279.091C260.912 276.336 263.21 264.171 263.802 260.853C273.81 204.77 234.571 153.591 209.861 105.148L170.255 105.743C179.695 124.313 189.631 143.13 198.988 162.173C210.74 186.089 223.269 210.637 235.788 234.219Z" fill="white"/>
<path fill-rule="evenodd" clip-rule="evenodd" d="M302.332 152.526L323.676 95.792L284.36 100.426C282.817 104.989 260.217 165.511 260.375 168.133C260.598 171.809 264.118 175.769 265.491 180.26C268.267 186.705 270.906 196.843 271.543 204.186C272.711 215.114 272.246 221.609 272.117 231.832L283.456 201.993L291.981 179.696L298.139 164.3L302.332 152.526Z" fill="white"/>
</g>
<defs>
<filter id="filter0_d_39_6" x="-4" y="0" width="469" height="339" filterUnits="userSpaceOnUse" color-interpolation-filters="sRGB">
<feFlood flood-opacity="0" result="BackgroundImageFix"/>
<feColorMatrix in="SourceAlpha" type="matrix" values="0 0 0 0 0 0 0 0 0 0 0 0 0 0 0 0 0 0 127 0" result="hardAlpha"/>
<feOffset dy="4"/>
<feGaussianBlur stdDeviation="2"/>
<feComposite in2="hardAlpha" operator="out"/>
<feColorMatrix type="matrix" values="0 0 0 0 0 0 0 0 0 0 0 0 0 0 0 0 0 0 0.25 0"/>
<feBlend mode="normal" in2="BackgroundImageFix" result="effect1_dropShadow_39_6"/>
<feBlend mode="normal" in="SourceGraphic" in2="effect1_dropShadow_39_6" result="shape"/>
</filter>
</defs>
</svg>
